# xmcd
#
# Track frame offsets: 
#        183
#        30270
#        59905
#        82338
#        116330
#        144953
#
# Disc length: 2198 seconds
#
# Revision: 2
# Processed by: cddbd v1.5.2PL0 Copyright (c) Steve Scherf et al.
# Submitted via: ExactAudioCopy v1.0b3
#
DISCID=4d089406
DTITLE=The Last Poets - Oh My People
DYEAR=1985
DGENRE=Soul
TTITLE0=Get Movin'
TTITLE1=This is Your Life
TTITLE2=What Will You Do
TTITLE3=Oh My People
TTITLE4=Hold Fast
TTITLE5=Parting Company
EXTD=
EXTT0=
EXTT1=
EXTT2=
EXTT3=
EXTT4=
EXTT5=
PLAYORDER=
